<svg enable-background="new 0 0 500 500" viewBox="0 0 500 500" xmlns="http://www.w3.org/2000/svg"><path d="m72.27 157.211c-45.873 30.749-56.138 113.599-28.704 171.073 62.615 127.657 224.465 170.334 302.785 135.526 55.16-24.516 73.173-66.821 81.268-125.368 5.631-30.761 15.265-58.146 25.24-86.749 66.039-177.445-89.141-253.464-186.57-144.317-52.517 58.83-135.846 12.507-194.019 49.835z" fill="#faf9e0"/><path d="m129.995 396.454c-3.566-11.092-6.456-22.038-8.459-32.76 21.503 2.051 34.114-14.455 32.484-32.185-13.737 7.349-21.907 19.641-33.025 29.201-1.382-7.904-2.21-15.683-2.356-23.272 27.637-2.985 42.697-24.862 46.223-48.005-18.454 12.421-29.806 30.216-46.264 44.213.011-10.811 1.153-21.239 3.684-31.037 24.4-3.556 40.224-21.001 44.239-41.954-17.289 9.104-29.281 22.498-42.331 35.328 6.617-25.762 30.968-39.599 44.614-60.952-22.975 3.345-39.448 21.488-45.25 40.203-.763 1.066.65-1.189 0 0 .61-20.082 8.95-32.183 16.35-49.112-23.379 6.382-36.477 31.799-20.809 57.913-3.917 9.11-6.586 18.962-7.628 29.433-6.383-18.142-9.289-36.387-10.595-53.611-15.677 10.767-10.472 41.236 10.159 59.467-.334 6.948-.035 14.109.866 21.395-8.567-12.871-17.858-25.039-28.986-37.001-3.034 14.033 11.998 34.087 29.823 42.778 2.932 16.461 8.683 33.384 17.261 49.958z" fill="#4d6656"/><path d="m52.76 343.966c-4.582 3.416-8.331-1.111-5.712-22.136.785-6.304.463-13.834-4.35-18.59-5.73-5.662-13.903-2.349-15.596 5.042-1.804 7.875 4.006 16.222 8.521 22.038 2.338 3.012 11.463 13.19 8.062 17.814-4.033 5.483-12.183-2.235-16.06-4.328-2.579-1.392-5.783-2.804-8.634-1.318-7.169 3.737-6.262 14.328.477 17.662 8.137 4.025 19.054 2.387 27.581.954 9.441-1.587 9.6 5.316 3.491 11.028-6.109 5.713-8.172 12.615 7.934 10.79 16.105-1.825 27.371 5.078 27.371 5.078s-20.152-14.916-12.06-26.42c8.093-11.504 17.375-23.485 7.22-28.721-10.156-5.237-10.156 7.855-14.123 13.012s-13.726 1.111-8.41-7.458 18.248-8.569 15.313-19.597c-2.936-11.028-15.63-8.093-17.455 3.015-1.824 11.107.924 18.785-3.57 22.135z" fill="#e59160"/><path d="m35.305 308.898c4.784 20.506 13.57 40.239 26.495 56.917 5.677 7.329 12.233 13.957 19.287 19.964-26.072-15.409-43.738-46.921-45.782-76.881z" fill="#4d6656"/><path d="m441.129 152.642c-7.475 0-16.07 1.39-23.127 3.233-4.486-3.614-15.757-6.179-28.962-6.179-17.143 0-31.041 4.322-31.041 9.652s13.898 9.652 31.042 9.652c8.013 0 15.316-.945 20.823-2.495 5.321 1.517 13.66 2.495 23.041 2.495 16.069 0 29.095-2.866 29.095-6.401s-4.802-9.957-20.871-9.957z" fill="#fff"/><path d="m407.509 27.335c6.431 7.323 8.571 13.484 16.215 13.977 6.317.408 14.609-5.055 18.983 2.08 3.286 5.359.173 12.49.861 18.335.863 7.326 7.259 10.12 11.752 15.035 8.324 9.104-12.297 14.826-14.003 22.989-1.182 5.656 1.555 11.33.825 16.856-.89 6.729-10.832 6.24-15.704 5.854-3.862-.305-7.878-.698-11.375 1.359-2.878 1.692-4.393 4.579-6.431 7.085-3.462 4.258-8.832 6.943-14.101 4.259-4.402-2.242-7.171-6.791-10.9-9.885-4.88-4.049-9.61-3.394-15.591-3.237-6.288.166-11.004-1.904-11.704-8.843-.719-7.125 5.123-13.954-.163-20.442-3.293-4.042-9.212-5.963-10.774-11.342-2.015-6.941 3.903-11.26 8.475-15.184 5.589-4.797 6.587-9.511 6.58-16.58-.006-6.433 2.26-9.367 8.945-10.035 8.867-.887 15.962.16 21.848-7.559 3.604-4.722 9.464-12.463 16.262-4.722z" fill="#f2e636"/><path d="m404.761 107.752c-14.94 4.443-26.054-6.352-29.895-19.497s1.258-31.395 16.198-35.838 33.027 8.399 36.868 21.545c3.841 13.144-8.231 29.347-23.171 33.79z" fill="#e59160"/><path d="m416.56 92.811c-12.812 0-27.785 4.677-39.134 10.473-10.366-7.676-30.325-18.284-48.426-18.284-26.063 0-38.819 11.449-38.819 25.557s21.128 25.545 47.191 25.545c12.311 0 23.132-2.577 31.309-6.771 8.071 4.111 20.911 6.771 35.376 6.771 24.429 0 44.233-7.585 44.233-16.94-.001-9.356-7.301-26.351-31.73-26.351z" fill="#fff"/><path d="m385 398.754c0 9.062-45.46.781-105.14.781s-110.981 8.28-110.981-.781c0-9.062 72.329-14.845 132.009-14.845s84.112 5.783 84.112 14.845z" fill="#e59160" opacity=".44"/><path d="m209.401 285.401c-14.839 23.477-15.3 52.524-16.003 79.463-.779 7.543-4.351 15.107-2.716 22.837 2.105 9.954 17.7 10.71 25.356 9.481 3.755-.603 8.884-1.788 11.325-5.033 3.929-5.224 2.839-13.885 3.059-19.997.217-6.02 1.339-11.987 1.664-18.008.704-13.838 3.21-83.091-22.685-68.743z" fill="#4d6656"/><path d="m420.754 294.346c-.396-.656-.92-1.223-1.607-1.681-3.433-2.289-9.416.525-14.012 6.337-5.457 6.902-17.738 9.102-25.856 7.75-20.124-3.353-23.245-27.668-34.352-41.32-11.692-14.371-29.505-27.122-48.579-28.11-6.795-.352-13.609.028-20.321 1.146-6.609 1.101-13.677 4.692-20.398 3.367-4.917-.97-9.245-3.935-12.655-7.51-9.02-9.456-12.662-23.435-12.906-36.189.126-9.274 1.331-18.46 3.706-27.417 2.073-7.815 4.708-17.549 4.227-25.718-1-17-41.551 7.765-46.519 19.362-11.564 26.993-13.28 58.999-13.219 87.982.003 1.192.011 2.384.025 3.576.712 59.079 27.712 94.079 73.458 105.923 14.37 3.721 27.532 4.506 42.011 1.94 27.636-4.893 55.255-10.035 83.062-13.914 37.522-5.234 44.2-34.635 45.171-49.257-.022-1.452-.129-2.987-.483-4.401-.172-.68-.415-1.306-.753-1.866z" fill="#a8bd62"/><path d="m421.249 295.354c-16.43 63.658-63.621 26.064-63.621 26.064-109.955 63.148-8.616 32.331 19.191 28.452 3.942-.55 7.847-1.408 11.627-2.661 3.279-1.086 6.462-2.471 9.461-4.188 2.678-1.533 5.204-3.329 7.516-5.373 2.125-1.879 4.065-3.965 5.792-6.216 1.619-2.111 3.049-4.364 4.288-6.717 1.167-2.215 2.166-4.518 3.006-6.876.781-2.19 1.425-4.427 1.945-6.693.467-2.037.833-4.096 1.104-6.168.42-3.21.711-6.489-.309-9.624z" fill="#4d6656"/><g fill="#f2e636"><path d="m296.922 361.827c-136.987-13.318-88.922-176.827-88.922-176.827l-22.828-.815c-5.215 21.86-7.163 48.652-6.885 71.735.713 59.08 27.713 94.08 73.459 105.924 14.37 3.721 27.532 4.506 42.011 1.94 2.727-.483 5.454-.969 8.181-1.455-1.63-.167-3.29-.335-5.016-.502z"/><path d="m310.129 256.848c.066 3.609-2.805 6.589-6.414 6.655s-6.588-2.805-6.655-6.414 2.805-6.588 6.414-6.655c3.609-.066 6.588 2.805 6.655 6.414z"/><path d="m333.629 269.643c.068 3.694-2.872 6.744-6.566 6.812s-6.744-2.871-6.812-6.566c-.068-3.694 2.871-6.744 6.566-6.812 3.694-.068 6.744 2.872 6.812 6.566z"/><path d="m315.167 284.498c.08 4.319-3.357 7.885-7.677 7.965-4.319.08-7.885-3.357-7.965-7.677-.08-4.319 3.357-7.885 7.677-7.965 4.32-.079 7.886 3.357 7.965 7.677z"/></g><path d="m192.401 188.115c-2.397.044-4.8-.053-7.189-.272l-1.31 1.44c-4.384 20.839-6.007 45.321-5.614 66.637.079 4.263.393 8.459.919 12.567 2.673-32.019 16.065-65.2 24.16-81.496-3.297.654-6.946 1.049-10.966 1.124z" fill="#e59160"/><path d="m357.764 325.525c.149-10.041-2.731-20.07-10.052-26.835-7.602-7.025-18.044-5.71-26.391-.758-21.334 12.657-30.933 42.031-22.423 64.994 2.583 6.969 2.81 14.628.117 21.812-7.345 14.023 5.458 16.485 16.709 16.545 8.462.106 25.638-1.641 24.727-13.485-2.904-15.129 6.977-28.798 12.854-41.899 2.694-6.003 4.352-13.191 4.459-20.374z" fill="#a8bd62"/><path d="m333.041 294.351c-21.705 3.249-30.984 28.77-36.78 47.348-2.004-20.045 13.135-51.836 36.78-47.348z" fill="#4d6656"/><path d="m326.414 391.064c-4.178.077-7.533 4.54-7.839 10.183 4.766-.172 10.889-.965 15.454-3.273-1.26-4.104-4.214-6.972-7.615-6.91z" fill="#fff"/><path d="m309.641 390.132c-3.114.057-5.608 4.238-5.953 9.628 3.491 1.147 7.869 1.501 12.037 1.523.102.001.212.001.316.002 0-.035.01-.065.009-.101-.113-6.167-2.983-11.115-6.409-11.052z" fill="#fff"/><path d="m298.032 387.646c-.105-.006-.21.008-.314.017-2.259 6.237.197 9.705 4.591 11.577.005-.054.021-.099.025-.154.361-6.158-1.565-11.279-4.302-11.44z" fill="#fff"/><path d="m315.725 401.284c8.404-.947 23.622-2.121 23.179-13.366l.023.174c-5.365-30.799 35.274-55.886 8.785-89.401 13.841 11.364 13.909 32.626 7.33 48.043-4.316 9.799-10.42 19.069-12.695 29.576-1.65 5.262.52 10.663-.96 15.841-4.19 9.546-16.787 9.629-25.662 9.133z" fill="#4d6656"/><path d="m185.172 184.185c-6.275 40.919-10.602 85.524 5.291 124.708 16.131 39.602 62.124 60.562 103.294 54.892-31.317 6.647-66.46-3.447-89.08-26.326-37.752-40.734-30.7-103.252-19.505-153.274z" fill="#e59160"/><path d="m258.866 365.035c.637-16.363 1.106-32.965-2.93-48.881-2.053-8.095-5.783-25.142-16.956-25.421-11.593-.289-14.672 16.811-16.486 25.278-1.841 8.597-2.357 17.114-2.213 25.896.157 9.547 1.401 19.981-.649 29.396-1.57 7.211-5.272 16.431-2.537 23.529 2.041 6.642 10.317 8.967 16.429 9.544 6.94.655 15.465-.318 20.957-5.041 9.884-8.499 3.773-23.459 4.385-34.3z" fill="#a8bd62"/><path d="m245.446 393.557c-4.378.081-7.843 4.978-7.853 11.001 5.37-.026 11.11-1.135 15.453-4.131-1.266-4.083-4.21-6.933-7.6-6.87z" fill="#fff"/><path d="m228.673 392.625c-2.94.054-5.328 3.784-5.877 8.737 3.288 1.833 7.339 2.694 10.729 3.014.488.046.985.082 1.487.111.046-.259.076-.526.071-.81-.114-6.167-2.984-11.116-6.41-11.052z" fill="#fff"/><path d="m217.064 390.139c-.276-.016-.548.032-.817.114-.016.219-.025.437-.035.655.129 1.358.402 2.676.884 3.925.743 2.419 2.319 4.259 4.31 5.657.087-5.662-1.768-10.2-4.342-10.351z" fill="#fff"/><path d="m233.525 404.376c30.25-.143 24.713-18.19 23.402-40.364.672-21.861 1.627-44.875-7.312-65.323 12.141 19.22 12.059 43.502 11.261 65.498 1.904 23.073 3.535 44.196-27.351 40.189z" fill="#4d6656"/><path d="m161.98 126.435c-3.073-1.953-6.733-3.062-10.649-2.99-10.595.195-19.208 8.924-18.832 19.485.244 6.855 2.383 11.52 5.727 14.493 14.195 38.506 98.792 44.538 99.774-9.423.819-45.032-57-58-76.02-21.565z" fill="#a8bd62"/><path d="m183.53 140.905c5.393-10.826 18.641-15.822 28.305-7.865 2.753 2.464 4.655 7.006 4.255 10.882-.322 3.115-3.302-.484-4.052-1.446-3.733-4.788-7.368-8.258-13.483-8.135-5.473.111-10.926 2.751-15.025 6.564z" fill="#4d6656"/><path d="m205.383 115.929c8.255-1.187 17.559 5.793 15.236 14.685-2.124-8.381-7.737-11.575-15.236-14.685z" fill="#4d6656"/><path d="m161.394 137.926c.041 2.209-1.717 4.032-3.926 4.073s-4.032-1.717-4.073-3.926 1.717-4.032 3.926-4.073c2.209-.04 4.032 1.717 4.073 3.926z" fill="#4d6656"/><path d="m226.576 153.51c.045 2.449-4.69 4.523-10.576 4.632s-10.694-1.789-10.74-4.239c-.045-2.449 4.69-4.523 10.576-4.632 5.886-.108 10.694 1.79 10.74 4.239z" fill="#e59160"/><path d="m186.428 165.224c-4.981-4.051-6.537-11.193-3.696-16.823-3.253 1.658-4.478 5.108-4.103 8.458-.1.01-.211.038-.35.109-12.438 6.342-28.681 7.18-40.237.008 4.619 5.553 12.894 8.343 20.664 8.47 7.413.096 14.722-2.021 20.699-5.608 1.205 2.856 3.652 5.141 7.023 5.386z" fill="#4d6656"/><path d="m138.314 157.663c14.185 26.836 50.688 36.105 77.902 25.215-25.424 17.113-68.97 5.358-77.902-25.215z" fill="#4d6656"/><path d="m296.347 237.321c4.442.23 8.814 1.105 13.058 2.483-2.024-12.407-7.324-28.821-23.591-28.961-15.438-.133-25.362 15.435-26.26 31.259 5.507-.24 11.139-2.746 16.472-3.635 6.712-1.117 13.525-1.498 20.321-1.146z" fill="#e59160"/><path d="m398.987 303.804c-.326-3.88-1.689-7.675-4.139-10.576-8.709-10.306-23.473-2.244-26.273 8.885 2.968 2.28 6.454 3.93 10.703 4.638 5.785.965 13.672.112 19.709-2.947z" fill="#e59160"/><path d="m344.926 265.432c4.131 5.078 7.158 11.63 10.365 18.031.508-.634.969-1.329 1.362-2.107 5.252-10.46 12.326-28.645-1.679-38.12-9.411-6.367-21.207-3.336-30.097 4.053 7.699 4.987 14.551 11.385 20.049 18.143z" fill="#e59160"/><path d="m156 402.445-1-19-23-8v-15l-19-7c-28.675 8.25-35 44-31 58 11.074 38.76 71 37 88-5z" fill="#a8bd62"/><path d="m139.798 409.485 2.202-23.04-31.335-1.854 2.335-31.146c-32 6-52.724 35.843-45.981 59.282s35.456 35.753 64.131 27.503c15.626-4.495 28.016-14.17 34.965-25.836z" fill="#f2e636"/><path d="m93.431 377.266c0 2.474-2.005 4.479-4.479 4.479s-4.479-2.005-4.479-4.479 2.005-4.479 4.479-4.479c2.474.001 4.479 2.006 4.479 4.479z" fill="#a8bd62"/><path d="m112.133 396.546c0 2.474-2.005 4.479-4.479 4.479s-4.479-2.005-4.479-4.479 2.005-4.479 4.479-4.479c2.474.001 4.479 2.006 4.479 4.479z" fill="#a8bd62"/><path d="m95.936 404.966c0 3.578-2.901 6.479-6.479 6.479s-6.479-2.901-6.479-6.479 2.901-6.479 6.479-6.479 6.479 2.901 6.479 6.479z" fill="#a8bd62"/><path d="m88 427.445c20.376 6.152 41.235 4.137 60.976-3.271-15.756 15.421-43.878 17.687-60.976 3.271z" fill="#fff"/><path d="m113 353.445c-45.962 11.184-66.796 70.731-12.965 87.889-59.399-11.492-37.974-82.873 12.965-87.889z" fill="#a8bd62"/><path d="m440.498 403.074c3.772-7.069 7.069-14.123 9.737-21.133-14.802-1.246-21.315-13.96-18.04-25.759 8.396 6.656 12.419 15.975 18.772 23.806 1.903-5.18 3.417-10.342 4.445-15.46-18.337-5.405-25.848-22.055-25.399-38.148 10.966 10.666 16.469 24.099 25.891 35.586 1.317-7.317 1.821-14.514 1.309-21.455-16.077-5.395-24.648-19.139-24.798-33.81 10.585 8.279 17.059 18.812 24.318 29.092-1.322-18.244-16.106-30.591-22.724-46.712 15.138 5.078 24.063 19.374 25.697 32.749.385.815-.294-.885 0 0 2.047-13.665-2.115-22.875-5.048-35.238 15.039 7.183 20.789 25.987 6.988 41.74 1.535 6.644 2.134 13.639 1.556 20.852 6.542-11.495 10.743-23.486 13.737-34.981 9.29 9.207 2.035 29.188-14.159 38.998-.625 4.742-1.705 9.552-3.207 14.372 7.374-7.661 15.152-14.757 24.148-21.489.334 9.868-12.295 21.597-25.422 25.296-4.001 10.782-9.965 21.529-17.801 31.694z" fill="#e59160"/><path d="m461 365.555-17 9-24-9-13.391 28.561-18.609-1.561-4 16c16.156 2.168 34.215 3.111 50.18-.736 17.13-4.128 40.451-23.26 26.82-42.264z" fill="#a8bd62"/><path d="m461.026 365.313-10.856 21.027-28.08-13.109-6.481 35.886-31.717-.615c4.341 5.762 10.027 10.875 16.879 14.831 23.782 13.731 52.607 8.329 64.381-12.065 8.186-14.18 5.975-31.873-4.126-45.955z" fill="#f2e636"/><ellipse cx="438.979" cy="412.284" fill="#a8bd62" rx="7.749" ry="7.749" transform="matrix(.7071 -.7071 .7071 .7071 -162.9551 431.1599)"/><path d="m433.723 430.645c31.42-5.62 43.607-39.031 27.303-65.332 23.022 24.254 7.09 66.019-27.303 65.332z" fill="#a8bd62"/></svg>