<svg version="1.1" xmlns="http://www.w3.org/2000/svg" xmlns:xlink="http://www.w3.org/1999/xlink" x="0px" y="0px"
	 viewBox="0 0 500 500" style="enable-background:new 0 0 500 500;" xml:space="preserve">
<g id="OBJECTS">
	<path style="fill:#FAF9E0;" d="M72.27,157.211C26.397,187.96,16.132,270.81,43.566,328.284
		c62.615,127.657,224.465,170.334,302.785,135.526c55.16-24.516,73.173-66.821,81.268-125.368
		c5.631-30.761,15.265-58.146,25.24-86.749c66.039-177.445-89.141-253.464-186.57-144.317
		C213.772,166.206,130.443,119.883,72.27,157.211z"/>
	<path style="fill:#4D6656;" d="M129.995,396.454c-3.566-11.092-6.456-22.038-8.459-32.76c21.503,2.051,34.114-14.455,32.484-32.185
		c-13.737,7.349-21.907,19.641-33.025,29.201c-1.382-7.904-2.21-15.683-2.356-23.272c27.637-2.985,42.697-24.862,46.223-48.005
		c-18.454,12.421-29.806,30.216-46.264,44.213c0.011-10.811,1.153-21.239,3.684-31.037c24.4-3.556,40.224-21.001,44.239-41.954
		c-17.289,9.104-29.281,22.498-42.331,35.328c6.617-25.762,30.968-39.599,44.614-60.952c-22.975,3.345-39.448,21.488-45.25,40.203
		c-0.763,1.066,0.65-1.189,0,0c0.61-20.082,8.95-32.183,16.35-49.112c-23.379,6.382-36.477,31.799-20.809,57.913
		c-3.917,9.11-6.586,18.962-7.628,29.433c-6.383-18.142-9.289-36.387-10.595-53.611c-15.677,10.767-10.472,41.236,10.159,59.467
		c-0.334,6.948-0.035,14.109,0.866,21.395c-8.567-12.871-17.858-25.039-28.986-37.001c-3.034,14.033,11.998,34.087,29.823,42.778
		C115.666,362.957,121.417,379.88,129.995,396.454z"/>
	<path style="fill:#DA0000;" d="M233.071,117.307"/>
	<g>
		<path style="fill:#E59160;" d="M52.76,343.966c-4.582,3.416-8.331-1.111-5.712-22.136c0.785-6.304,0.463-13.834-4.35-18.59
			c-5.73-5.662-13.903-2.349-15.596,5.042c-1.804,7.875,4.006,16.222,8.521,22.038c2.338,3.012,11.463,13.19,8.062,17.814
			c-4.033,5.483-12.183-2.235-16.06-4.328c-2.579-1.392-5.783-2.804-8.634-1.318c-7.169,3.737-6.262,14.328,0.477,17.662
			c8.137,4.025,19.054,2.387,27.581,0.954c9.441-1.587,9.6,5.316,3.491,11.028c-6.109,5.713-8.172,12.615,7.934,10.79
			C74.579,381.097,85.845,388,85.845,388s-20.152-14.916-12.06-26.42c8.093-11.504,17.375-23.485,7.22-28.721
			c-10.156-5.237-10.156,7.855-14.123,13.012s-13.726,1.111-8.41-7.458c5.316-8.569,18.248-8.569,15.313-19.597
			c-2.936-11.028-15.63-8.093-17.455,3.015C54.506,332.938,57.254,340.616,52.76,343.966z"/>
		<path style="fill:#4D6656;" d="M35.305,308.898c4.784,20.506,13.57,40.239,26.495,56.917c5.677,7.329,12.233,13.957,19.287,19.964
			C55.015,370.37,37.349,338.858,35.305,308.898z"/>
	</g>
	<path style="fill:#FFFFFF;" d="M441.129,152.642c-7.475,0-16.07,1.39-23.127,3.233c-4.486-3.614-15.757-6.179-28.962-6.179
		c-17.143,0-31.041,4.322-31.041,9.652S371.897,169,389.041,169c8.013,0,15.316-0.945,20.823-2.495
		c5.321,1.517,13.66,2.495,23.041,2.495c16.069,0,29.095-2.866,29.095-6.401C462,159.064,457.198,152.642,441.129,152.642z"/>
	<g>
		<path style="fill:#F2E636;" d="M407.509,27.335c6.431,7.323,8.571,13.484,16.215,13.977c6.317,0.408,14.609-5.055,18.983,2.08
			c3.286,5.359,0.173,12.49,0.861,18.335c0.863,7.326,7.259,10.12,11.752,15.035c8.324,9.104-12.297,14.826-14.003,22.989
			c-1.182,5.656,1.555,11.33,0.825,16.856c-0.89,6.729-10.832,6.24-15.704,5.854c-3.862-0.305-7.878-0.698-11.375,1.359
			c-2.878,1.692-4.393,4.579-6.431,7.085c-3.462,4.258-8.832,6.943-14.101,4.259c-4.402-2.242-7.171-6.791-10.9-9.885
			c-4.88-4.049-9.61-3.394-15.591-3.237c-6.288,0.166-11.004-1.904-11.704-8.843c-0.719-7.125,5.123-13.954-0.163-20.442
			c-3.293-4.042-9.212-5.963-10.774-11.342c-2.015-6.941,3.903-11.26,8.475-15.184c5.589-4.797,6.587-9.511,6.58-16.58
			c-0.006-6.433,2.26-9.367,8.945-10.035c8.867-0.887,15.962,0.16,21.848-7.559C394.851,27.335,400.711,19.594,407.509,27.335z"/>
		<path style="fill:#E59160;" d="M404.761,107.752c-14.94,4.443-26.054-6.352-29.895-19.497
			c-3.841-13.145,1.258-31.395,16.198-35.838c14.94-4.443,33.027,8.399,36.868,21.545
			C431.773,87.106,419.701,103.309,404.761,107.752z"/>
	</g>
	<path style="fill:#FFFFFF;" d="M416.56,92.811c-12.812,0-27.785,4.677-39.134,10.473C367.06,95.608,347.101,85,329,85
		c-26.063,0-38.819,11.449-38.819,25.557s21.128,25.545,47.191,25.545c12.311,0,23.132-2.577,31.309-6.771
		c8.071,4.111,20.911,6.771,35.376,6.771c24.429,0,44.233-7.585,44.233-16.94C448.289,109.806,440.989,92.811,416.56,92.811z"/>
	<path style="opacity:0.44;fill:#E59160;" d="M385,398.754c0,9.062-45.46,0.781-105.14,0.781c-59.68,0-110.981,8.28-110.981-0.781
		c0-9.062,72.329-14.845,132.009-14.845C360.568,383.909,385,389.692,385,398.754z"/>
	<g>
		<path style="fill:#4D6656;" d="M209.401,285.401c-14.839,23.477-15.3,52.524-16.003,79.463
			c-0.779,7.543-4.351,15.107-2.716,22.837c2.105,9.954,17.7,10.71,25.356,9.481c3.755-0.603,8.884-1.788,11.325-5.033
			c3.929-5.224,2.839-13.885,3.059-19.997c0.217-6.02,1.339-11.987,1.664-18.008C232.79,340.306,235.296,271.053,209.401,285.401z"
			/>
		<path style="fill:#A8BD62;" d="M420.754,294.346c-0.396-0.656-0.92-1.223-1.607-1.681c-3.433-2.289-9.416,0.525-14.012,6.337
			c-5.457,6.902-17.738,9.102-25.856,7.75c-20.124-3.353-23.245-27.668-34.352-41.32c-11.692-14.371-29.505-27.122-48.579-28.11
			c-6.795-0.352-13.609,0.028-20.321,1.146c-6.609,1.101-13.677,4.692-20.398,3.367c-4.917-0.97-9.245-3.935-12.655-7.51
			c-9.02-9.456-12.662-23.435-12.906-36.189c0.126-9.274,1.331-18.46,3.706-27.417c2.073-7.815,4.708-17.549,4.227-25.718
			c-1-17-41.551,7.765-46.519,19.362c-11.564,26.993-13.28,58.999-13.219,87.982c0.003,1.192,0.011,2.384,0.025,3.576
			C179,315,206,350,251.746,361.844c14.37,3.721,27.532,4.506,42.011,1.94c27.636-4.893,55.255-10.035,83.062-13.914
			c37.522-5.234,44.2-34.635,45.171-49.257c-0.022-1.452-0.129-2.987-0.483-4.401C421.335,295.532,421.092,294.906,420.754,294.346z
			"/>
		<path style="fill:#4D6656;" d="M421.249,295.354c-16.43,63.658-63.621,26.064-63.621,26.064
			c-109.955,63.148-8.616,32.331,19.191,28.452c3.942-0.55,7.847-1.408,11.627-2.661c3.279-1.086,6.462-2.471,9.461-4.188
			c2.678-1.533,5.204-3.329,7.516-5.373c2.125-1.879,4.065-3.965,5.792-6.216c1.619-2.111,3.049-4.364,4.288-6.717
			c1.167-2.215,2.166-4.518,3.006-6.876c0.781-2.19,1.425-4.427,1.945-6.693c0.467-2.037,0.833-4.096,1.104-6.168
			C421.978,301.768,422.269,298.489,421.249,295.354z"/>
		<path style="fill:#F2E636;" d="M296.922,361.827C159.935,348.509,208,185,208,185l-22.828-0.815
			c-5.215,21.86-7.163,48.652-6.885,71.735C179,315,206,350,251.746,361.844c14.37,3.721,27.532,4.506,42.011,1.94
			c2.727-0.483,5.454-0.969,8.181-1.455C300.308,362.162,298.648,361.994,296.922,361.827z"/>
		<path style="fill:#F2E636;" d="M310.129,256.848c0.066,3.609-2.805,6.589-6.414,6.655c-3.609,0.066-6.588-2.805-6.655-6.414
			c-0.067-3.609,2.805-6.588,6.414-6.655C307.083,250.368,310.062,253.239,310.129,256.848z"/>
		<path style="fill:#F2E636;" d="M333.629,269.643c0.068,3.694-2.872,6.744-6.566,6.812c-3.694,0.068-6.744-2.871-6.812-6.566
			c-0.068-3.694,2.871-6.744,6.566-6.812C330.511,263.009,333.561,265.949,333.629,269.643z"/>
		<path style="fill:#F2E636;" d="M315.167,284.498c0.08,4.319-3.357,7.885-7.677,7.965c-4.319,0.08-7.885-3.357-7.965-7.677
			c-0.08-4.319,3.357-7.885,7.677-7.965C311.522,276.742,315.088,280.178,315.167,284.498z"/>
		<path style="fill:#E59160;" d="M192.401,188.115c-2.397,0.044-4.8-0.053-7.189-0.272l-1.31,1.44
			c-4.384,20.839-6.007,45.321-5.614,66.637c0.079,4.263,0.393,8.459,0.919,12.567c2.673-32.019,16.065-65.2,24.16-81.496
			C200.07,187.645,196.421,188.04,192.401,188.115z"/>
		<g>
			<path style="fill:#A8BD62;" d="M357.764,325.525c0.149-10.041-2.731-20.07-10.052-26.835c-7.602-7.025-18.044-5.71-26.391-0.758
				c-21.334,12.657-30.933,42.031-22.423,64.994c2.583,6.969,2.81,14.628,0.117,21.812c-7.345,14.023,5.458,16.485,16.709,16.545
				c8.462,0.106,25.638-1.641,24.727-13.485c-2.904-15.129,6.977-28.798,12.854-41.899
				C355.999,339.896,357.657,332.708,357.764,325.525z"/>
			<path style="fill:#4D6656;" d="M333.041,294.351c-21.705,3.249-30.984,28.77-36.78,47.348
				C294.257,321.654,309.396,289.863,333.041,294.351z"/>
			<g>
				<path style="fill:#FFFFFF;" d="M326.414,391.064c-4.178,0.077-7.533,4.54-7.839,10.183c4.766-0.172,10.889-0.965,15.454-3.273
					C332.769,393.87,329.815,391.002,326.414,391.064z"/>
				<path style="fill:#FFFFFF;" d="M309.641,390.132c-3.114,0.057-5.608,4.238-5.953,9.628c3.491,1.147,7.869,1.501,12.037,1.523
					c0.102,0.001,0.212,0.001,0.316,0.002c0-0.035,0.01-0.065,0.009-0.101C315.937,395.017,313.067,390.069,309.641,390.132z"/>
				<path style="fill:#FFFFFF;" d="M298.032,387.646c-0.105-0.006-0.21,0.008-0.314,0.017c-2.259,6.237,0.197,9.705,4.591,11.577
					c0.005-0.054,0.021-0.099,0.025-0.154C302.695,392.928,300.769,387.807,298.032,387.646z"/>
			</g>
			<path style="fill:#4D6656;" d="M315.725,401.284c8.404-0.947,23.622-2.121,23.179-13.366l0.023,0.174
				c-5.365-30.799,35.274-55.886,8.785-89.401c13.841,11.364,13.909,32.626,7.33,48.043c-4.316,9.799-10.42,19.069-12.695,29.576
				c-1.65,5.262,0.52,10.663-0.96,15.841C337.197,401.697,324.6,401.78,315.725,401.284z"/>
		</g>
		<path style="fill:#E59160;" d="M185.172,184.185c-6.275,40.919-10.602,85.524,5.291,124.708
			c16.131,39.602,62.124,60.562,103.294,54.892c-31.317,6.647-66.46-3.447-89.08-26.326
			C166.925,296.725,173.977,234.207,185.172,184.185z"/>
		<g>
			<path style="fill:#A8BD62;" d="M258.866,365.035c0.637-16.363,1.106-32.965-2.93-48.881c-2.053-8.095-5.783-25.142-16.956-25.421
				c-11.593-0.289-14.672,16.811-16.486,25.278c-1.841,8.597-2.357,17.114-2.213,25.896c0.157,9.547,1.401,19.981-0.649,29.396
				c-1.57,7.211-5.272,16.431-2.537,23.529c2.041,6.642,10.317,8.967,16.429,9.544c6.94,0.655,15.465-0.318,20.957-5.041
				C264.365,390.836,258.254,375.876,258.866,365.035z"/>
			<g>
				<path style="fill:#FFFFFF;" d="M245.446,393.557c-4.378,0.081-7.843,4.978-7.853,11.001c5.37-0.026,11.11-1.135,15.453-4.131
					C251.78,396.344,248.836,393.494,245.446,393.557z"/>
				<path style="fill:#FFFFFF;" d="M228.673,392.625c-2.94,0.054-5.328,3.784-5.877,8.737c3.288,1.833,7.339,2.694,10.729,3.014
					c0.488,0.046,0.985,0.082,1.487,0.111c0.046-0.259,0.076-0.526,0.071-0.81C234.969,397.51,232.099,392.561,228.673,392.625z"/>
				<path style="fill:#FFFFFF;" d="M217.064,390.139c-0.276-0.016-0.548,0.032-0.817,0.114c-0.016,0.219-0.025,0.437-0.035,0.655
					c0.129,1.358,0.402,2.676,0.884,3.925c0.743,2.419,2.319,4.259,4.31,5.657C221.493,394.828,219.638,390.29,217.064,390.139z"/>
			</g>
			<path style="fill:#4D6656;" d="M233.525,404.376c30.25-0.143,24.713-18.19,23.402-40.364c0.672-21.861,1.627-44.875-7.312-65.323
				c12.141,19.22,12.059,43.502,11.261,65.498C262.78,387.26,264.411,408.383,233.525,404.376z"/>
		</g>
		<g>
			<path style="fill:#A8BD62;" d="M161.98,126.435c-3.073-1.953-6.733-3.062-10.649-2.99c-10.595,0.195-19.208,8.924-18.832,19.485
				c0.244,6.855,2.383,11.52,5.727,14.493C152.421,195.929,237.018,201.961,238,148C238.819,102.968,181,90,161.98,126.435z"/>
			<path style="fill:#4D6656;" d="M183.53,140.905c5.393-10.826,18.641-15.822,28.305-7.865c2.753,2.464,4.655,7.006,4.255,10.882
				c-0.322,3.115-3.302-0.484-4.052-1.446c-3.733-4.788-7.368-8.258-13.483-8.135C193.082,134.452,187.629,137.092,183.53,140.905z"
				/>
			<path style="fill:#4D6656;" d="M205.383,115.929c8.255-1.187,17.559,5.793,15.236,14.685
				C218.495,122.233,212.882,119.039,205.383,115.929z"/>
			<path style="fill:#4D6656;" d="M161.394,137.926c0.041,2.209-1.717,4.032-3.926,4.073c-2.209,0.041-4.032-1.717-4.073-3.926
				c-0.041-2.209,1.717-4.032,3.926-4.073C159.53,133.96,161.353,135.717,161.394,137.926z"/>
			<path style="fill:#E59160;" d="M226.576,153.51c0.045,2.449-4.69,4.523-10.576,4.632s-10.694-1.789-10.74-4.239
				c-0.045-2.449,4.69-4.523,10.576-4.632C221.722,149.163,226.53,151.061,226.576,153.51z"/>
			<path style="fill:#4D6656;" d="M186.428,165.224c-4.981-4.051-6.537-11.193-3.696-16.823c-3.253,1.658-4.478,5.108-4.103,8.458
				c-0.1,0.01-0.211,0.038-0.35,0.109c-12.438,6.342-28.681,7.18-40.237,0.008c4.619,5.553,12.894,8.343,20.664,8.47
				c7.413,0.096,14.722-2.021,20.699-5.608C180.61,162.694,183.057,164.979,186.428,165.224z"/>
			<path style="fill:#4D6656;" d="M138.314,157.663c14.185,26.836,50.688,36.105,77.902,25.215
				C190.792,199.991,147.246,188.236,138.314,157.663z"/>
		</g>
		<g>
			<path style="fill:#E59160;" d="M296.347,237.321c4.442,0.23,8.814,1.105,13.058,2.483c-2.024-12.407-7.324-28.821-23.591-28.961
				c-15.438-0.133-25.362,15.435-26.26,31.259c5.507-0.24,11.139-2.746,16.472-3.635
				C282.738,237.35,289.551,236.969,296.347,237.321z"/>
			<path style="fill:#E59160;" d="M398.987,303.804c-0.326-3.88-1.689-7.675-4.139-10.576c-8.709-10.306-23.473-2.244-26.273,8.885
				c2.968,2.28,6.454,3.93,10.703,4.638C385.063,307.716,392.95,306.863,398.987,303.804z"/>
			<path style="fill:#E59160;" d="M344.926,265.432c4.131,5.078,7.158,11.63,10.365,18.031c0.508-0.634,0.969-1.329,1.362-2.107
				c5.252-10.46,12.326-28.645-1.679-38.12c-9.411-6.367-21.207-3.336-30.097,4.053
				C332.576,252.276,339.428,258.674,344.926,265.432z"/>
		</g>
	</g>
	<g>
		<path style="fill:#A8BD62;" d="M156,402.445l-1-19l-23-8v-15l-19-7c-28.675,8.25-35,44-31,58c11.074,38.76,71,37,88-5L156,402.445
			z"/>
		<path style="fill:#F2E636;" d="M139.798,409.485l2.202-23.04l-31.335-1.854L113,353.445c-32,6-52.724,35.843-45.981,59.282
			c6.743,23.439,35.456,35.753,64.131,27.503c15.626-4.495,28.016-14.17,34.965-25.836L139.798,409.485z"/>
		<path style="fill:#A8BD62;" d="M93.431,377.266c0,2.474-2.005,4.479-4.479,4.479c-2.474,0-4.479-2.005-4.479-4.479
			s2.005-4.479,4.479-4.479C91.426,372.788,93.431,374.793,93.431,377.266z"/>
		<path style="fill:#A8BD62;" d="M112.133,396.546c0,2.474-2.005,4.479-4.479,4.479c-2.474,0-4.479-2.005-4.479-4.479
			c0-2.474,2.005-4.479,4.479-4.479C110.128,392.068,112.133,394.073,112.133,396.546z"/>
		<path style="fill:#A8BD62;" d="M95.936,404.966c0,3.578-2.901,6.479-6.479,6.479c-3.578,0-6.479-2.901-6.479-6.479
			c0-3.578,2.901-6.479,6.479-6.479C93.035,398.487,95.936,401.388,95.936,404.966z"/>
		<path style="fill:#FFFFFF;" d="M88,427.445c20.376,6.152,41.235,4.137,60.976-3.271C133.22,439.595,105.098,441.861,88,427.445z"
			/>
		<path style="fill:#A8BD62;" d="M113,353.445c-45.962,11.184-66.796,70.731-12.965,87.889
			C40.636,429.842,62.061,358.461,113,353.445z"/>
	</g>
	<path style="fill:#E59160;" d="M440.498,403.074c3.772-7.069,7.069-14.123,9.737-21.133c-14.802-1.246-21.315-13.96-18.04-25.759
		c8.396,6.656,12.419,15.975,18.772,23.806c1.903-5.18,3.417-10.342,4.445-15.46c-18.337-5.405-25.848-22.055-25.399-38.148
		c10.966,10.666,16.469,24.099,25.891,35.586c1.317-7.317,1.821-14.514,1.309-21.455c-16.077-5.395-24.648-19.139-24.798-33.81
		c10.585,8.279,17.059,18.812,24.318,29.092c-1.322-18.244-16.106-30.591-22.724-46.712c15.138,5.078,24.063,19.374,25.697,32.749
		c0.385,0.815-0.294-0.885,0,0c2.047-13.665-2.115-22.875-5.048-35.238c15.039,7.183,20.789,25.987,6.988,41.74
		c1.535,6.644,2.134,13.639,1.556,20.852c6.542-11.495,10.743-23.486,13.737-34.981c9.29,9.207,2.035,29.188-14.159,38.998
		c-0.625,4.742-1.705,9.552-3.207,14.372c7.374-7.661,15.152-14.757,24.148-21.489c0.334,9.868-12.295,21.597-25.422,25.296
		C454.298,382.162,448.334,392.909,440.498,403.074z"/>
	<g>
		<path style="fill:#A8BD62;" d="M461,365.555l-17,9l-24-9l-13.391,28.561L388,392.555l-4,16c16.156,2.168,34.215,3.111,50.18-0.736
			C451.31,403.691,474.631,384.559,461,365.555z"/>
		<path style="fill:#F2E636;" d="M461.026,365.313L450.17,386.34l-28.08-13.109l-6.481,35.886l-31.717-0.615
			c4.341,5.762,10.027,10.875,16.879,14.831c23.782,13.731,52.607,8.329,64.381-12.065
			C473.338,397.088,471.127,379.395,461.026,365.313z"/>
		
			<ellipse transform="matrix(0.7071 -0.7071 0.7071 0.7071 -162.9551 431.1599)" style="fill:#A8BD62;" cx="438.979" cy="412.284" rx="7.749" ry="7.749"/>
		<path style="fill:#A8BD62;" d="M433.723,430.645c31.42-5.62,43.607-39.031,27.303-65.332
			C484.048,389.567,468.116,431.332,433.723,430.645z"/>
	</g>
</g>
</svg>
